<svg width="290" height="439" viewBox="0 0 290 439" fill="none" xmlns="http://www.w3.org/2000/svg">
<g filter="url(#filter0_bd_172_3656)">
<ellipse cx="145" cy="215.5" rx="135" ry="209.5" fill="url(#paint0_linear_172_3656)" fill-opacity="0.1" shape-rendering="crispEdges"/>
<path d="M279.8 215.5C279.8 273.319 264.698 325.655 240.291 363.531C215.883 401.408 182.188 424.8 145 424.8C107.812 424.8 74.1165 401.408 49.7087 363.531C25.3022 325.655 10.2 273.319 10.2 215.5C10.2 157.681 25.3022 105.345 49.7087 67.4695C74.1165 29.5922 107.812 6.2 145 6.2C182.188 6.2 215.883 29.5922 240.291 67.4695C264.698 105.345 279.8 157.681 279.8 215.5Z" stroke="url(#paint1_linear_172_3656)" stroke-width="0.4" shape-rendering="crispEdges"/>
</g>
<defs>
<filter id="filter0_bd_172_3656" x="-30" y="-34" width="350" height="499" filterUnits="userSpaceOnUse" color-interpolation-filters="sRGB">
<feFlood flood-opacity="0" result="BackgroundImageFix"/>
<feGaussianBlur in="BackgroundImageFix" stdDeviation="20"/>
<feComposite in2="SourceAlpha" operator="in" result="effect1_backgroundBlur_172_3656"/>
<feColorMatrix in="SourceAlpha" type="matrix" values="0 0 0 0 0 0 0 0 0 0 0 0 0 0 0 0 0 0 127 0" result="hardAlpha"/>
<feOffset dy="4"/>
<feGaussianBlur stdDeviation="5"/>
<feComposite in2="hardAlpha" operator="out"/>
<feColorMatrix type="matrix" values="0 0 0 0 0 0 0 0 0 0 0 0 0 0 0 0 0 0 0.25 0"/>
<feBlend mode="normal" in2="effect1_backgroundBlur_172_3656" result="effect2_dropShadow_172_3656"/>
<feBlend mode="normal" in="SourceGraphic" in2="effect2_dropShadow_172_3656" result="shape"/>
</filter>
<linearGradient id="paint0_linear_172_3656" x1="49" y1="37.037" x2="328.037" y2="261.923" gradientUnits="userSpaceOnUse">
<stop stop-color="white"/>
<stop offset="1" stop-color="white"/>
</linearGradient>
<linearGradient id="paint1_linear_172_3656" x1="198" y1="-25.037" x2="-9.77657" y2="428.932" gradientUnits="userSpaceOnUse">
<stop stop-color="white"/>
<stop offset="1" stop-color="white" stop-opacity="0.2"/>
</linearGradient>
</defs>
</svg>
