<svg width="14" height="14" viewBox="0 0 14 14" fill="none" xmlns="http://www.w3.org/2000/svg">
<g id="instagram">
<path id="Vector" d="M7.00067 5.24984C6.53654 5.24984 6.09142 5.43421 5.76323 5.7624C5.43504 6.09059 5.25067 6.53571 5.25067 6.99984C5.25067 7.46397 5.43504 7.90909 5.76323 8.23727C6.09142 8.56546 6.53654 8.74984 7.00067 8.74984C7.46479 8.74984 7.90991 8.56546 8.2381 8.23727C8.56629 7.90909 8.75067 7.46397 8.75067 6.99984C8.75067 6.53571 8.56629 6.09059 8.2381 5.7624C7.90991 5.43421 7.46479 5.24984 7.00067 5.24984ZM7.00067 4.08317C7.77421 4.08317 8.51608 4.39046 9.06306 4.93744C9.61004 5.48442 9.91733 6.22629 9.91733 6.99984C9.91733 7.77339 9.61004 8.51525 9.06306 9.06223C8.51608 9.60921 7.77421 9.9165 7.00067 9.9165C6.22712 9.9165 5.48525 9.60921 4.93827 9.06223C4.39129 8.51525 4.084 7.77339 4.084 6.99984C4.084 6.22629 4.39129 5.48442 4.93827 4.93744C5.48525 4.39046 6.22712 4.08317 7.00067 4.08317ZM10.7923 3.93734C10.7923 4.13072 10.7155 4.31619 10.5788 4.45294C10.442 4.58968 10.2566 4.6665 10.0632 4.6665C9.86978 4.6665 9.68431 4.58968 9.54757 4.45294C9.41082 4.31619 9.334 4.13072 9.334 3.93734C9.334 3.74395 9.41082 3.55848 9.54757 3.42174C9.68431 3.28499 9.86978 3.20817 10.0632 3.20817C10.2566 3.20817 10.442 3.28499 10.5788 3.42174C10.7155 3.55848 10.7923 3.74395 10.7923 3.93734ZM7.00067 2.33317C5.5575 2.33317 5.32183 2.33725 4.65041 2.367C4.19308 2.38859 3.88625 2.44984 3.60158 2.56067C3.36336 2.64813 3.14799 2.78832 2.97158 2.97075C2.789 3.14715 2.64862 3.36251 2.56091 3.60075C2.45008 3.88659 2.38883 4.19284 2.36783 4.64959C2.3375 5.29359 2.33341 5.51875 2.33341 6.99984C2.33341 8.44359 2.3375 8.67867 2.36725 9.35009C2.38883 9.80684 2.45008 10.1143 2.56033 10.3983C2.6595 10.6521 2.77616 10.8347 2.96983 11.0283C3.16641 11.2243 3.349 11.3416 3.59983 11.4384C3.888 11.5498 4.19483 11.6117 4.64983 11.6327C5.29383 11.663 5.519 11.6665 7.00008 11.6665C8.44383 11.6665 8.67892 11.6624 9.35033 11.6327C9.8065 11.6111 10.1133 11.5498 10.3986 11.4396C10.6366 11.3517 10.8519 11.2116 11.0286 11.0295C11.2252 10.8335 11.3424 10.6509 11.4392 10.3995C11.5501 10.1125 11.6119 9.80567 11.6329 9.3495C11.6632 8.70609 11.6667 8.48034 11.6667 6.99984C11.6667 5.55667 11.6627 5.321 11.6329 4.64959C11.6113 4.19342 11.5495 3.88542 11.4392 3.60075C11.3513 3.36276 11.2112 3.14749 11.0292 2.97075C10.8528 2.78808 10.6375 2.64768 10.3992 2.56009C10.1133 2.44925 9.8065 2.388 9.35033 2.367C8.70691 2.33667 8.48175 2.33317 7.00008 2.33317M7.00008 1.1665C8.585 1.1665 8.78275 1.17234 9.40516 1.2015C10.0258 1.23067 10.4493 1.32809 10.8209 1.47275C11.2059 1.62092 11.5302 1.82159 11.8546 2.14534C12.1512 2.43694 12.3807 2.78968 12.5272 3.179C12.6712 3.55059 12.7692 3.97409 12.7984 4.59534C12.8258 5.21717 12.8334 5.41492 12.8334 6.99984C12.8334 8.58475 12.8276 8.7825 12.7984 9.40434C12.7692 10.0256 12.6712 10.4485 12.5272 10.8207C12.3811 11.2102 12.1516 11.563 11.8546 11.8543C11.5629 12.1509 11.2102 12.3804 10.8209 12.5269C10.4493 12.671 10.0258 12.769 9.40516 12.7982C8.78275 12.8256 8.585 12.8332 7.00008 12.8332C5.41516 12.8332 5.21741 12.8273 4.595 12.7982C3.97433 12.769 3.55141 12.671 3.17925 12.5269C2.78977 12.3808 2.43697 12.1512 2.14558 11.8543C1.84892 11.5628 1.61939 11.21 1.473 10.8207C1.32833 10.4491 1.23091 10.0256 1.20175 9.40434C1.17375 8.7825 1.16675 8.58475 1.16675 6.99984C1.16675 5.41492 1.17258 5.21717 1.20175 4.59534C1.23091 3.97409 1.32833 3.55117 1.473 3.179C1.61897 2.78944 1.84855 2.43661 2.14558 2.14534C2.43706 1.84856 2.78983 1.61901 3.17925 1.47275C3.55083 1.32809 3.97375 1.23067 4.595 1.2015C5.218 1.17409 5.41575 1.1665 7.00067 1.1665" fill="current"/>
</g>
</svg>
