<svg width="143" height="143" viewBox="0 0 143 143" fill="none" xmlns="http://www.w3.org/2000/svg">
<path opacity="0.7" fill-rule="evenodd" clip-rule="evenodd" d="M71.5 140C109.332 140 140 109.332 140 71.5C140 33.6685 109.332 3 71.5 3C33.6685 3 3 33.6685 3 71.5C3 109.332 33.6685 140 71.5 140ZM71.5 143C110.988 143 143 110.988 143 71.5C143 32.0116 110.988 0 71.5 0C32.0116 0 0 32.0116 0 71.5C0 110.988 32.0116 143 71.5 143Z" fill="url(#paint0_linear_1_1708)"/>
<path d="M82.1327 115.507H60.8359L58.9657 115.139C48.5689 113.1 41.8275 106.986 38.7821 96.8624C38.2439 95.0735 38.1141 93.1587 37.7966 91.3021V70.0052C37.8701 69.8312 37.9284 69.6511 37.9709 69.467C38.3252 67.0779 39.5197 65.2077 41.4558 63.7943C42.8769 62.743 44.5167 62.3907 46.2592 62.2048C46.2708 61.9376 46.2902 61.715 46.2902 61.4943C46.2902 58.0422 46.2437 54.5883 46.3134 51.1382C46.3154 49.4326 46.469 47.7306 46.7723 46.0521C49.6764 31.6477 64.2666 22.8038 78.4251 26.8269C88.9961 29.8298 96.4577 39.4753 96.6436 50.447C96.7055 54.0288 96.6591 57.6105 96.661 61.1922V62.199C101.133 62.7178 103.987 65.0411 104.868 68.7971C104.99 69.3218 105.062 69.8581 105.164 70.3905V91.1065C105.038 92.0881 104.955 93.0755 104.777 94.0474C102.951 104.181 97.1721 110.936 87.4414 114.312C85.7551 114.905 83.9081 115.12 82.1327 115.507ZM71.3778 68.5164H47.9513C45.357 68.5164 44.3715 69.496 44.3715 72.0517C44.3715 77.8909 44.327 83.7301 44.3986 89.5693C44.4082 91.2424 44.6148 92.9086 45.0143 94.5333C47.2118 103.099 54.8031 108.924 63.6432 108.938C68.3188 108.938 72.9964 108.951 77.6739 108.938C79.0575 108.951 80.4408 108.886 81.8171 108.744C90.9418 107.664 98.2738 99.42 98.3628 90.1423C98.4132 84.2412 98.3802 78.3323 98.3841 72.435C98.3841 72.2414 98.3841 72.0478 98.3725 71.8542C98.3376 69.5115 97.3541 68.528 94.9786 68.5261C87.1142 68.5145 79.2473 68.5112 71.3778 68.5164ZM52.9135 62.1157H90.2681C90.2681 58.232 90.2816 54.4295 90.2681 50.6251C90.2658 47.876 89.6437 45.1628 88.4482 42.6872C84.9342 35.3941 77.0815 31.2296 68.6015 32.2615C59.0334 33.4231 53.3801 40.6931 52.9309 49.4073C52.7238 53.4305 52.8748 57.4692 52.8651 61.502C52.8612 61.6956 52.8922 61.8834 52.9135 62.1157Z" fill="url(#paint1_linear_1_1708)"/>
<path d="M70.9915 95.7664C69.7989 95.838 68.825 95.2107 68.2945 94.1691C66.7128 91.0617 65.5143 87.7956 65.4892 84.2603C65.4698 81.3194 68.1997 78.8393 71.1251 78.9535C74.2635 79.0677 76.8288 81.7414 76.5868 84.7617C76.3273 87.9988 75.2915 91.0365 73.9169 93.9542C73.3767 95.1081 72.4106 95.778 70.9915 95.7664Z" fill="url(#paint2_linear_1_1708)"/>
<path opacity="0.8" fill-rule="evenodd" clip-rule="evenodd" d="M71.5 127.441C102.395 127.441 127.441 102.395 127.441 71.5C127.441 40.6048 102.395 15.5593 71.5 15.5593C40.6048 15.5593 15.5593 40.6048 15.5593 71.5C15.5593 102.395 40.6048 127.441 71.5 127.441ZM71.5 133C105.466 133 133 105.466 133 71.5C133 37.5345 105.466 10 71.5 10C37.5345 10 10 37.5345 10 71.5C10 105.466 37.5345 133 71.5 133Z" fill="url(#paint3_linear_1_1708)"/>
<defs>
<linearGradient id="paint0_linear_1_1708" x1="123" y1="19.5" x2="13" y2="131.5" gradientUnits="userSpaceOnUse">
<stop stop-color="#E23F6E"/>
<stop offset="1" stop-color="#FBAD78"/>
</linearGradient>
<linearGradient id="paint1_linear_1_1708" x1="95.7422" y1="38.079" x2="29.1679" y2="89.014" gradientUnits="userSpaceOnUse">
<stop stop-color="#E23F6E"/>
<stop offset="1" stop-color="#FBAD78"/>
</linearGradient>
<linearGradient id="paint2_linear_1_1708" x1="76.9998" y1="79" x2="65.9998" y2="96" gradientUnits="userSpaceOnUse">
<stop offset="0.163226" stop-color="#E85671"/>
<stop offset="1" stop-color="#F6B79C"/>
</linearGradient>
<linearGradient id="paint3_linear_1_1708" x1="115.797" y1="26.7727" x2="21.1818" y2="123.108" gradientUnits="userSpaceOnUse">
<stop stop-color="#E23F6E"/>
<stop offset="1" stop-color="#FBAD78"/>
</linearGradient>
</defs>
</svg>
