<svg width="36" height="41" viewBox="0 0 36 41" fill="none" xmlns="http://www.w3.org/2000/svg">
<g id="Group 838" filter="url(#filter0_d_227_4879)">
<path id="Vector" d="M19.9866 30.1942H15.1895L14.7683 30.1114C12.4264 29.6521 10.908 28.275 10.222 25.9946C10.1007 25.5917 10.0715 25.1604 10 24.7421V19.9451C10.0165 19.9059 10.0297 19.8653 10.0392 19.8238C10.1191 19.2857 10.3881 18.8644 10.8242 18.5461C11.1443 18.3093 11.5137 18.2299 11.9062 18.188C11.9088 18.1279 11.9132 18.0777 11.9132 18.028C11.9132 17.2504 11.9027 16.4724 11.9184 15.6953C11.9188 15.3111 11.9534 14.9278 12.0217 14.5497C12.6759 11.3051 15.9623 9.31305 19.1515 10.2193C21.5326 10.8956 23.2133 13.0683 23.2552 15.5396C23.2691 16.3464 23.2586 17.1532 23.2591 17.96V18.1867C24.2665 18.3036 24.9093 18.8269 25.1077 19.673C25.1352 19.7911 25.1513 19.9119 25.1744 20.0319V24.6981C25.1461 24.9192 25.1273 25.1416 25.0872 25.3605C24.6758 27.6431 23.3742 29.1646 21.1824 29.9252C20.8025 30.0586 20.3865 30.107 19.9866 30.1942ZM17.5641 19.6097H12.2873C11.703 19.6097 11.481 19.8304 11.481 20.406C11.481 21.7213 11.471 23.0366 11.4871 24.3518C11.4892 24.7287 11.5358 25.104 11.6258 25.47C12.1207 27.3993 13.8307 28.7115 15.8219 28.7146C16.8751 28.7146 17.9287 28.7176 18.9823 28.7146C19.2939 28.7175 19.6055 28.7029 19.9155 28.6709C21.9708 28.4276 23.6223 26.5707 23.6424 24.4809C23.6537 23.1517 23.6463 21.8207 23.6472 20.4924C23.6472 20.4488 23.6472 20.4052 23.6446 20.3616C23.6367 19.8339 23.4152 19.6123 22.8801 19.6119C21.1087 19.6093 19.3367 19.6086 17.5641 19.6097ZM13.405 18.168H21.8191C21.8191 17.2932 21.8221 16.4367 21.8191 15.5798C21.8186 14.9605 21.6785 14.3494 21.4092 13.7918C20.6176 12.149 18.8488 11.2109 16.9387 11.4434C14.7835 11.705 13.5101 13.3426 13.409 15.3055C13.3623 16.2117 13.3963 17.1214 13.3941 18.0297C13.3933 18.0734 13.4002 18.1157 13.405 18.168Z" fill="black"/>
<path id="Vector_2" d="M17.477 25.7479C17.2083 25.764 16.989 25.6227 16.8695 25.3881C16.5132 24.6882 16.2432 23.9525 16.2376 23.1562C16.2332 22.4937 16.8481 21.9351 17.507 21.9608C18.214 21.9865 18.7918 22.5888 18.7373 23.2691C18.6788 23.9983 18.4455 24.6825 18.1359 25.3397C18.0142 25.5996 17.7966 25.7505 17.477 25.7479Z" fill="black"/>
</g>
<defs>
<filter id="filter0_d_227_4879" x="0" y="0" width="35.1743" height="40.1943" filterUnits="userSpaceOnUse" color-interpolation-filters="sRGB">
<feFlood flood-opacity="0" result="BackgroundImageFix"/>
<feColorMatrix in="SourceAlpha" type="matrix" values="0 0 0 0 0 0 0 0 0 0 0 0 0 0 0 0 0 0 127 0" result="hardAlpha"/>
<feOffset/>
<feGaussianBlur stdDeviation="5"/>
<feComposite in2="hardAlpha" operator="out"/>
<feColorMatrix type="matrix" values="0 0 0 0 1 0 0 0 0 1 0 0 0 0 1 0 0 0 1 0"/>
<feBlend mode="normal" in2="BackgroundImageFix" result="effect1_dropShadow_227_4879"/>
<feBlend mode="normal" in="SourceGraphic" in2="effect1_dropShadow_227_4879" result="shape"/>
</filter>
</defs>
</svg>
