<svg width="185" height="85" viewBox="0 0 185 85" fill="none" xmlns="http://www.w3.org/2000/svg">
<path opacity="0.9" d="M3.84375 78V34.25H8.09375V78H3.84375ZM11.0312 78V73.8125C15.6979 73.8125 18.9062 73.3333 20.6562 72.375C22.8646 71.0833 23.9896 68.8542 24.0312 65.6875V46.5625C24.0312 42.5625 22.1979 40.0833 18.5312 39.125C16.8646 38.6667 14.3646 38.4375 11.0312 38.4375V34.25C18.7812 34.25 23.8646 35.9167 26.2812 39.25C27.6562 41.1667 28.3438 43.6042 28.3438 46.5625V65.6875C28.3438 71.9792 25.4688 75.8333 19.7188 77.25C17.5938 77.75 14.6979 78 11.0312 78ZM41.4688 61.625V57.6875H61.2188V61.625H41.4688ZM74.2812 45.5C74.5312 42.125 75.9271 39.3125 78.4688 37.0625C80.5104 35.3542 82.8229 34.4167 85.4062 34.25V38.25C84.0312 38.25 82.6354 38.8125 81.2188 39.9375C79.5104 41.3958 78.4479 43.5 78.0312 46.25L74.2812 45.5ZM75.4688 78V73.875H100.719V78H75.4688ZM75.4688 71.0625C75.4688 65.8125 79.0312 61.2917 86.1562 57.5C86.5729 57.2917 87.1354 57 87.8438 56.625C88.6354 56.2083 89.1562 55.9375 89.4062 55.8125C92.4062 54.1458 94.3854 52.7292 95.3438 51.5625C96.5104 50.1458 97.0938 48.6042 97.0938 46.9375C97.0938 41.8542 94.8229 39 90.2812 38.375C89.6562 38.2917 89.0312 38.25 88.4062 38.25V34.25C94.4896 34.25 98.4479 36.625 100.281 41.375C100.906 43.0833 101.219 44.9375 101.219 46.9375C101.135 50.6458 99.5521 53.6667 96.4688 56C95.7188 56.5833 94.8646 57.1458 93.9062 57.6875C93.4062 57.9792 92.5312 58.4375 91.2812 59.0625C87.0729 61.2292 84.1979 63.1458 82.6562 64.8125C80.9479 66.7292 80.0729 68.8125 80.0312 71.0625H75.4688ZM128.469 78.1875V74.1875C132.177 74.1458 134.698 72.75 136.031 70C136.573 68.8333 136.844 67.5208 136.844 66.0625C136.719 60.8542 133.531 58.2292 127.281 58.1875V54.25C133.615 54.2083 136.802 51.5833 136.844 46.375C136.844 42.5 135.198 39.9792 131.906 38.8125C130.865 38.4792 129.719 38.2917 128.469 38.25V34.25C133.01 34.25 136.427 35.8542 138.719 39.0625C140.135 41.1042 140.844 43.5 140.844 46.25C140.802 50.7917 139.219 54.1042 136.094 56.1875C139.26 58.4375 140.844 61.7708 140.844 66.1875C140.844 70.6458 139.156 73.9792 135.781 76.1875C133.698 77.5208 131.26 78.1875 128.469 78.1875ZM113.906 66.9375L117.656 66.1875C118.24 70.2708 120.156 72.8333 123.406 73.875C124.031 74.0833 124.573 74.1875 125.031 74.1875V78.1875C121.198 77.9375 118.198 76.1875 116.031 72.9375C114.781 71.0625 114.073 69.0625 113.906 66.9375ZM113.906 45.5C114.156 42.125 115.552 39.3125 118.094 37.0625C120.135 35.3542 122.448 34.4167 125.031 34.25V38.25C123.656 38.25 122.26 38.8125 120.844 39.9375C119.135 41.3958 118.073 43.5 117.656 46.25L113.906 45.5ZM153.781 55.875L155.594 34.25H177.844V38.25H159.344L158.219 52.375C160.427 50.8333 162.76 50.0625 165.219 50.0625V53.9375C162.052 54.0625 159.51 55.4583 157.594 58.125L153.781 55.875ZM168.156 78V74.0625C170.615 73.9792 172.802 72.9583 174.719 71C176.51 69.0833 177.406 66.75 177.406 64C177.406 59.7083 175.677 56.7083 172.219 55C170.885 54.3333 169.531 53.9792 168.156 53.9375V50.0625C173.448 50.1042 177.26 52.2708 179.594 56.5625C180.802 58.8125 181.406 61.3125 181.406 64.0625C181.406 69.1458 179.51 72.9792 175.719 75.5625C173.427 77.1042 170.906 77.9167 168.156 78ZM153.656 70.125L157.219 68.6875C158.76 71.9375 161.406 73.7292 165.156 74.0625V78C161.406 78 158.323 76.625 155.906 73.875C154.865 72.7083 154.115 71.4583 153.656 70.125Z" fill="white"/>
<path opacity="0.7" d="M32.8302 7.524H42.6342V8.328H32.8302V7.524ZM37.2462 6.012H38.2302V7.788H37.2462V6.012ZM37.7262 9.132C40.0542 9.132 41.4342 9.816 41.4342 11.028C41.4342 12.24 40.0542 12.912 37.7262 12.912C35.4102 12.912 34.0182 12.24 34.0182 11.028C34.0182 9.816 35.4102 9.132 37.7262 9.132ZM37.7262 9.9C36.0222 9.9 35.0262 10.308 35.0262 11.028C35.0262 11.748 36.0222 12.156 37.7262 12.156C39.4302 12.156 40.4262 11.748 40.4262 11.028C40.4262 10.308 39.4302 9.9 37.7262 9.9ZM34.1382 2.364H35.1222V3.564H40.3662V2.364H41.3622V6.372H34.1382V2.364ZM35.1222 4.344V5.568H40.3662V4.344H35.1222ZM51.7653 2.1H52.7733V10.02H51.7653V2.1ZM45.8013 11.88H53.0973V12.696H45.8013V11.88ZM45.8013 9.204H46.7853V12.156H45.8013V9.204ZM46.9533 2.844C48.5733 2.844 49.7733 3.948 49.7733 5.52C49.7733 7.08 48.5733 8.196 46.9533 8.196C45.3333 8.196 44.1213 7.08 44.1213 5.52C44.1213 3.948 45.3333 2.844 46.9533 2.844ZM46.9533 3.708C45.8973 3.708 45.0933 4.452 45.0933 5.52C45.0933 6.576 45.8973 7.32 46.9533 7.32C48.0093 7.32 48.8133 6.576 48.8133 5.52C48.8133 4.452 48.0093 3.708 46.9533 3.708ZM58.2713 3.936H63.6473V4.752H58.2713V3.936ZM60.9593 5.472C62.3153 5.472 63.2993 6.492 63.2993 7.956C63.2993 9.408 62.3153 10.428 60.9593 10.428C59.6153 10.428 58.6313 9.408 58.6313 7.956C58.6313 6.492 59.6153 5.472 60.9593 5.472ZM60.9593 6.324C60.1313 6.324 59.5313 6.996 59.5313 7.956C59.5313 8.916 60.1313 9.588 60.9593 9.588C61.7993 9.588 62.4113 8.916 62.4113 7.956C62.4113 6.996 61.7993 6.324 60.9593 6.324ZM66.5153 2.088H67.4753V12.936H66.5153V2.088ZM64.7873 6.648H66.8393V7.476H64.7873V6.648ZM64.1993 2.328H65.1353V12.408H64.1993V2.328ZM60.4793 2.4H61.4633V4.44H60.4793V2.4ZM77.5784 2.088H78.5384V12.936H77.5784V2.088ZM73.6304 5.976H75.7064V6.804H73.6304V5.976ZM75.4064 2.34H76.3424V12.384H75.4064V2.34ZM71.5424 3.768H72.3104V5.148C72.3104 7.524 71.3984 9.768 69.8024 10.776L69.1904 10.032C70.7024 9.12 71.5424 7.14 71.5424 5.148V3.768ZM71.7464 3.768H72.5144V5.148C72.5144 7.032 73.3304 8.916 74.8184 9.78L74.2064 10.512C72.6224 9.552 71.7464 7.416 71.7464 5.148V3.768ZM69.4904 3.348H74.4464V4.176H69.4904V3.348ZM87.8974 2.088H88.8814V12.936H87.8974V2.088ZM88.5694 6.552H90.5014V7.392H88.5694V6.552ZM82.7014 3.252H83.6134C83.6134 5.868 83.0614 8.4 81.1174 10.5L80.3134 9.936C82.1014 8.076 82.7014 5.82 82.7014 3.36V3.252ZM80.6614 3.252H83.0734V4.08H80.6614V3.252ZM85.6534 3.252H86.5774C86.5774 5.88 86.2054 8.856 84.2134 11.22L83.4094 10.668C85.2454 8.544 85.6534 5.856 85.6534 3.348V3.252ZM83.9614 3.252H86.0614V4.08H83.9614V3.252ZM94.2805 3.636H95.0845V5.4C95.0845 7.692 93.7045 9.996 91.9765 10.848L91.4005 10.056C92.9725 9.312 94.2805 7.272 94.2805 5.4V3.636ZM94.4725 3.636H95.2765V5.4C95.2765 7.236 96.5845 9.108 98.1805 9.792L97.6165 10.584C95.8645 9.768 94.4725 7.656 94.4725 5.4V3.636ZM91.7605 3.192H97.8205V4.032H91.7605V3.192ZM99.2845 2.088H100.281V12.936H99.2845V2.088ZM113.243 2.088H114.239V8.22H113.243V2.088ZM113.975 4.572H115.847V5.4H113.975V4.572ZM107.399 8.808H114.239V12.792H107.399V8.808ZM113.267 9.612H108.383V11.976H113.267V9.612ZM106.343 2.628H107.339V6.972H106.343V2.628ZM106.343 6.564H107.195C108.755 6.564 110.375 6.456 112.151 6.096L112.271 6.912C110.435 7.296 108.815 7.404 107.195 7.404H106.343V6.564ZM116.854 7.788H126.658V8.604H116.854V7.788ZM118.126 11.88H125.578V12.696H118.126V11.88ZM118.126 9.552H119.122V12.132H118.126V9.552ZM121.762 2.448C124.078 2.448 125.578 3.264 125.578 4.62C125.578 5.964 124.078 6.78 121.762 6.78C119.434 6.78 117.946 5.964 117.946 4.62C117.946 3.264 119.434 2.448 121.762 2.448ZM121.762 3.264C120.058 3.264 118.966 3.768 118.966 4.62C118.966 5.472 120.058 5.976 121.762 5.976C123.466 5.976 124.558 5.472 124.558 4.62C124.558 3.768 123.466 3.264 121.762 3.264ZM134.136 3.024H134.952V4.968C134.952 7.464 133.608 9.78 131.832 10.68L131.22 9.864C132.828 9.096 134.136 7.02 134.136 4.968V3.024ZM134.304 3.024H135.12V4.968C135.12 6.948 136.416 8.94 138.024 9.684L137.424 10.476C135.66 9.612 134.304 7.38 134.304 4.968V3.024ZM139.152 2.076H140.148V12.948H139.152V2.076ZM149.735 2.088H150.731V10.02H149.735V2.088ZM150.419 5.376H152.339V6.204H150.419V5.376ZM146.771 2.928H147.827C147.827 5.736 145.859 7.788 142.751 8.784L142.319 7.968C145.055 7.128 146.771 5.448 146.771 3.36V2.928ZM142.763 2.928H147.275V3.744H142.763V2.928ZM143.963 11.88H151.211V12.696H143.963V11.88ZM143.963 9.216H144.959V12.204H143.963V9.216Z" fill="white"/>
</svg>
