<svg width="251" height="73" viewBox="0 0 251 73" fill="none" xmlns="http://www.w3.org/2000/svg">
<g filter="url(#filter0_d_0_1336)">
<rect x="10" y="6" width="231" height="53" rx="11" fill="white"/>
</g>
<path d="M142.381 30.07H144.261V31.13H142.381V30.07ZM142.331 32.38H144.221V33.44H142.331V32.38ZM145.521 27.63H146.791V36.89H145.521V27.63ZM143.611 27.83H144.851V36.48H143.611V27.83ZM141.521 28.72H142.801C142.801 31.35 142.011 33.45 139.431 34.97L138.681 34.04C140.771 32.77 141.521 31.23 141.521 28.99V28.72ZM139.211 28.72H141.971V29.78H139.211V28.72ZM153.73 29.87H155.49V30.95H153.73V29.87ZM155.13 27.63H156.46V33.13H155.13V27.63ZM153.32 33.33C155.28 33.33 156.49 34 156.49 35.12C156.49 36.25 155.28 36.9 153.32 36.9C151.36 36.9 150.15 36.25 150.15 35.12C150.15 34 151.36 33.33 153.32 33.33ZM153.32 34.34C152.12 34.34 151.48 34.59 151.48 35.12C151.48 35.64 152.12 35.89 153.32 35.89C154.53 35.89 155.17 35.64 155.17 35.12C155.17 34.59 154.53 34.34 153.32 34.34ZM150.85 28.56H151.93V29.14C151.93 30.91 151.11 32.53 149.34 33.13L148.66 32.08C150.19 31.56 150.85 30.33 150.85 29.14V28.56ZM151.13 28.56H152.2V29.14C152.2 30.23 152.83 31.36 154.29 31.85L153.64 32.9C151.92 32.33 151.13 30.79 151.13 29.14V28.56ZM149.02 28.19H154V29.25H149.02V28.19ZM162.799 28.09C164.749 28.09 166.259 29.16 166.259 30.77C166.259 32.39 164.749 33.45 162.799 33.45C160.849 33.45 159.339 32.39 159.339 30.77C159.339 29.16 160.849 28.09 162.799 28.09ZM162.799 29.17C161.539 29.17 160.639 29.77 160.639 30.77C160.639 31.76 161.539 32.36 162.799 32.36C164.059 32.36 164.959 31.76 164.959 30.77C164.959 29.77 164.059 29.17 162.799 29.17ZM158.619 34.69H166.999V35.78H158.619V34.69ZM168.518 34.79H176.898V35.87H168.518V34.79ZM172.028 33.04H173.358V35.23H172.028V33.04ZM169.458 28.23H175.958V31.31H170.798V32.87H169.478V30.27H174.638V29.28H169.458V28.23ZM169.478 32.34H176.168V33.41H169.478V32.34ZM187.811 27.62H189.151V36.88H187.811V27.62ZM188.801 31.16H190.431V32.25H188.801V31.16ZM185.381 28.58H186.681C186.681 31.36 185.621 33.74 182.541 35.29L181.801 34.28C184.231 33.02 185.381 31.32 185.381 28.81V28.58ZM182.311 28.58H186.061V29.65H182.311V28.58ZM198.15 27.63H199.49V32.61H198.15V27.63ZM193.33 33.01H194.64V33.87H198.17V33.01H199.49V36.79H193.33V33.01ZM194.64 34.89V35.73H198.17V34.89H194.64ZM194.45 28.01C195.89 28.01 196.96 28.92 196.96 30.2C196.96 31.48 195.89 32.39 194.45 32.39C193.01 32.39 191.93 31.48 191.93 30.2C191.93 28.92 193.01 28.01 194.45 28.01ZM194.45 29.11C193.74 29.11 193.23 29.52 193.23 30.2C193.23 30.89 193.74 31.29 194.45 31.29C195.15 31.29 195.66 30.89 195.66 30.2C195.66 29.52 195.15 29.11 194.45 29.11Z" fill="#888E9D"/>
<path d="M94.3695 26H94.7572C96.1032 26.0286 97.4273 26.5587 98.3782 27.497C98.0271 27.8479 97.6687 28.1846 97.3248 28.5355C96.7908 28.0628 96.1471 27.6975 95.4448 27.5686C94.4061 27.3537 93.2869 27.5471 92.4164 28.1273C91.4654 28.7361 90.8217 29.7675 90.6827 30.8705C90.5291 31.9592 90.8436 33.1052 91.5678 33.9503C92.2628 34.774 93.3235 35.2897 94.4207 35.3255C95.4448 35.3828 96.5129 35.0748 97.259 34.3729C97.8442 33.8787 98.1149 33.1266 98.2027 32.3961C96.9883 32.3961 95.774 32.4032 94.5597 32.3961V30.9206H99.673C99.9363 32.5035 99.556 34.287 98.327 35.4186C97.5077 36.2208 96.3739 36.6936 95.2181 36.7867C94.0989 36.8941 92.9431 36.6864 91.9482 36.1564C90.7558 35.5332 89.8049 34.4804 89.3367 33.2412C88.8978 32.1024 88.8905 30.8132 89.3001 29.6672C89.6732 28.6215 90.3901 27.6975 91.3118 27.0529C92.1969 26.4154 93.2723 26.0645 94.3695 26Z" fill="#888E9D"/>
<path d="M123.703 26.3738H125.269V36.6018C124.749 36.6018 124.222 36.6089 123.703 36.5946C123.71 33.1924 123.703 29.7831 123.703 26.3738Z" fill="#888E9D"/>
<path d="M103.155 29.919C104.12 29.7399 105.167 29.9405 105.964 30.5063C106.688 31.0077 107.193 31.7956 107.346 32.6551C107.544 33.6506 107.295 34.7393 106.637 35.5272C105.927 36.4082 104.764 36.8809 103.63 36.8093C102.592 36.752 101.582 36.2435 100.968 35.4126C100.273 34.4958 100.104 33.2352 100.485 32.1609C100.865 31.0077 101.941 30.1267 103.155 29.919ZM103.374 31.2799C102.979 31.3801 102.614 31.6022 102.35 31.9173C101.641 32.7482 101.685 34.1019 102.467 34.8754C102.913 35.3195 103.586 35.5272 104.208 35.4054C104.786 35.3052 105.291 34.9256 105.569 34.4242C106.052 33.5719 105.913 32.3972 105.174 31.7311C104.698 31.3014 104.003 31.1223 103.374 31.2799Z" fill="#888E9D"/>
<path d="M110.909 29.919C112.014 29.7113 113.221 30.0122 114.047 30.7714C115.393 31.9532 115.54 34.1664 114.391 35.5273C113.696 36.3867 112.57 36.8595 111.458 36.8093C110.397 36.7807 109.351 36.265 108.722 35.4127C108.012 34.4744 107.859 33.1851 108.261 32.0893C108.663 30.9719 109.717 30.1196 110.909 29.919ZM111.129 31.2799C110.734 31.3802 110.368 31.6022 110.105 31.9102C109.402 32.7267 109.432 34.0589 110.185 34.8397C110.631 35.3052 111.326 35.5344 111.97 35.4055C112.54 35.2981 113.053 34.9256 113.33 34.4242C113.806 33.5647 113.667 32.3901 112.921 31.724C112.445 31.2942 111.75 31.1223 111.129 31.2799Z" fill="#888E9D"/>
<path d="M117.486 30.3344C118.327 29.8187 119.446 29.6755 120.353 30.1196C120.638 30.2413 120.872 30.449 121.099 30.6568C121.107 30.4634 121.099 30.2628 121.107 30.0623C121.597 30.0694 122.087 30.0623 122.584 30.0694V36.3867C122.577 37.3393 122.328 38.3492 121.626 39.044C120.858 39.8104 119.68 40.0467 118.619 39.8892C117.486 39.7244 116.498 38.9151 116.059 37.8908C116.498 37.6831 116.959 37.5184 117.412 37.325C117.668 37.9123 118.188 38.4137 118.839 38.5283C119.49 38.6429 120.243 38.4853 120.668 37.9553C121.121 37.411 121.121 36.6661 121.099 35.9999C120.763 36.3223 120.375 36.6088 119.907 36.7162C118.89 36.9955 117.771 36.6517 116.988 35.9785C116.198 35.3052 115.73 34.2666 115.774 33.2352C115.796 32.0678 116.469 30.9433 117.486 30.3344ZM119 31.2512C118.554 31.3229 118.137 31.5664 117.851 31.903C117.164 32.7052 117.164 33.9873 117.859 34.7752C118.254 35.2407 118.89 35.4986 119.505 35.4341C120.082 35.3768 120.616 35.0187 120.902 34.5245C121.385 33.6865 121.304 32.5476 120.653 31.8171C120.251 31.3658 119.607 31.1438 119 31.2512Z" fill="#888E9D"/>
<path d="M127.148 30.6998C128.026 29.8976 129.38 29.6254 130.506 30.048C131.574 30.442 132.254 31.4375 132.598 32.4618C131.011 33.1064 129.431 33.7439 127.843 34.3885C128.063 34.7967 128.399 35.1692 128.853 35.3196C129.489 35.5416 130.25 35.4629 130.784 35.0474C130.996 34.8899 131.164 34.6821 131.325 34.4816C131.728 34.7466 132.13 35.0045 132.532 35.2695C131.962 36.1075 131.004 36.6948 129.972 36.7879C128.831 36.924 127.617 36.4942 126.878 35.6204C125.663 34.2452 125.781 31.9389 127.148 30.6998ZM127.931 32.0249C127.682 32.3758 127.58 32.8056 127.587 33.2282C128.648 32.7984 129.709 32.3687 130.769 31.9318C130.594 31.5307 130.17 31.2871 129.738 31.2227C129.043 31.1009 128.319 31.4662 127.931 32.0249Z" fill="#888E9D"/>
<path d="M70.4595 32.6759C70.4595 31.9357 70.3931 31.224 70.2697 30.5408H60.4385V34.5786H66.0563C65.8144 35.8834 65.0789 36.989 63.9734 37.7292V40.3483H67.3469C69.3208 38.531 70.4595 35.855 70.4595 32.6759Z" fill="#4285F4"/>
<path d="M60.4384 42.8771C63.2568 42.8771 65.6198 41.9424 67.3469 40.3482L63.9733 37.729C63.0386 38.3553 61.8429 38.7254 60.4384 38.7254C57.7196 38.7254 55.4184 36.8892 54.5975 34.4219H51.1101V37.1264C52.8277 40.5379 56.3579 42.8771 60.4384 42.8771Z" fill="#34A853"/>
<path d="M54.5977 34.4219C54.389 33.7956 54.2703 33.1266 54.2703 32.4386C54.2703 31.7506 54.389 31.0816 54.5977 30.4553V27.7507H51.1103C50.4033 29.1599 50 30.7542 50 32.4386C50 34.123 50.4033 35.7173 51.1103 37.1265L54.5977 34.4219Z" fill="#FBBC05"/>
<path d="M60.4384 26.1517C61.971 26.1517 63.347 26.6784 64.4288 27.7128L67.4228 24.7188C65.615 23.0344 63.2521 22 60.4384 22C56.3579 22 52.8277 24.3392 51.1101 27.7507L54.5975 30.4553C55.4184 27.988 57.7196 26.1517 60.4384 26.1517Z" fill="#EA4335"/>
<defs>
<filter id="filter0_d_0_1336" x="0" y="0" width="251" height="73" filterUnits="userSpaceOnUse" color-interpolation-filters="sRGB">
<feFlood flood-opacity="0" result="BackgroundImageFix"/>
<feColorMatrix in="SourceAlpha" type="matrix" values="0 0 0 0 0 0 0 0 0 0 0 0 0 0 0 0 0 0 127 0" result="hardAlpha"/>
<feOffset dy="4"/>
<feGaussianBlur stdDeviation="5"/>
<feComposite in2="hardAlpha" operator="out"/>
<feColorMatrix type="matrix" values="0 0 0 0 0 0 0 0 0 0 0 0 0 0 0 0 0 0 0.15 0"/>
<feBlend mode="normal" in2="BackgroundImageFix" result="effect1_dropShadow_0_1336"/>
<feBlend mode="normal" in="SourceGraphic" in2="effect1_dropShadow_0_1336" result="shape"/>
</filter>
</defs>
</svg>
