<svg width="30" height="23" viewBox="0 0 30 23" fill="none" xmlns="http://www.w3.org/2000/svg">
<g id="Group 22" opacity="0.4">
<path id="Vector" d="M15.1117 22.9999C13.6255 22.907 12.3994 22.8721 11.1838 22.7411C10.193 22.6351 9.20719 22.4393 8.2839 22.0551C7.5086 21.7327 6.81567 21.2575 6.67386 20.3258C6.53639 19.4116 6.80205 18.6108 7.46464 17.956C8.17154 17.2607 8.99503 16.6967 9.89703 16.2903C10.5782 15.9785 11.2662 15.6935 11.9405 15.3748C12.4266 15.1447 12.6298 14.6951 12.7195 14.1931C12.7524 14.0122 12.7065 13.8189 12.7288 13.6318C12.7802 13.2158 12.553 12.9246 12.309 12.6458C11.678 11.9274 11.2476 11.0949 10.9014 10.21C10.5225 9.24146 10.2915 8.24117 10.3782 7.19846C10.4847 5.92127 10.9219 4.79251 11.9127 3.91756C12.7579 3.1692 13.7661 2.8287 14.8436 2.83681C16.4096 2.84928 17.7268 3.44111 18.6278 4.82681C19.2272 5.74915 19.3826 6.75319 19.3665 7.82022C19.3498 8.98702 18.9999 10.0503 18.4748 11.0762C18.1662 11.6848 17.7893 12.2559 17.3515 12.7781C16.6827 13.5726 17.0047 14.8242 17.6723 15.2726C18.0104 15.4983 18.4277 15.6043 18.8055 15.7715C20.0681 16.3327 21.3134 16.9283 22.2776 17.9542C22.5697 18.2737 22.8104 18.6373 22.991 19.0318C23.0999 19.2656 23.0374 19.5762 23.0684 19.8506C23.1873 20.8977 22.6021 21.4914 21.7593 21.9117C20.9543 22.3133 20.091 22.5278 19.2055 22.622C17.7596 22.7785 16.3062 22.8927 15.1117 22.9999Z" fill="black"/>
<path id="Vector_2" d="M18.3286 13.8401C18.7429 13.161 19.1956 12.5031 19.5566 11.799C19.847 11.234 20.034 10.6141 20.2576 10.0148C20.6111 9.06626 20.6588 8.07594 20.6118 7.07939C20.5703 6.33107 20.4028 5.5953 20.1164 4.90355C19.7492 3.98931 19.2148 3.1998 18.4568 2.56619C18.4128 2.5294 18.4042 2.39532 18.4326 2.33109C18.8965 1.29212 19.6581 0.554997 20.7362 0.217614C21.4923 -0.0187404 22.2658 -0.0829738 23.0714 0.127189C24.1303 0.403456 24.9415 0.97158 25.4976 1.90266C25.8692 2.52628 26.0549 3.22786 26.1169 3.94628C26.2258 5.15924 25.9744 6.32604 25.5335 7.4467C25.2412 8.17583 24.8295 8.8504 24.3155 9.44231C23.9916 9.82085 23.9637 10.6272 24.269 10.9521C24.4143 11.0885 24.5896 11.1883 24.7805 11.2433C25.7967 11.5836 26.7712 12.0389 27.6854 12.6004C28.4081 13.0369 29.0843 13.5501 29.5122 14.2991C30.0076 15.1722 29.9456 16.561 28.844 17.2083C27.9907 17.7104 27.0482 17.9118 26.097 18.0714C25.5013 18.1712 24.8945 18.1993 24.2932 18.2679C24.1074 18.2891 24.0083 18.2124 23.9396 18.0509C23.6139 17.2869 23.0782 16.6851 22.4534 16.1631C21.4876 15.3625 20.4056 14.7158 19.2451 14.2455C18.9249 14.1152 18.6153 13.9674 18.3286 13.8401Z" fill="black"/>
<path id="Vector_3" d="M11.4772 13.7722C10.5056 14.2605 9.51916 14.6877 8.60391 15.2352C7.62798 15.8196 6.71955 16.5186 6.11145 17.5277C6.0229 17.6742 5.88853 17.8139 5.86004 17.9723C5.79812 18.3216 5.56095 18.2954 5.32997 18.2604C4.27725 18.1014 3.21587 17.9929 2.18606 17.7441C1.41572 17.557 0.651575 17.2421 0.219962 16.4737C0.136364 16.3253 0.0490506 16.1619 0.0304733 15.9967C-0.058698 15.1997 0.0236596 14.4576 0.60513 13.8171C1.32036 13.0295 2.19783 12.4956 3.13041 12.036C3.6351 11.7866 4.15712 11.5733 4.67357 11.35C4.82103 11.2832 4.9729 11.2267 5.12809 11.181C5.72257 11.0126 5.71514 10.5861 5.69099 10.0417C5.66684 9.51406 5.27052 9.24777 5.01787 8.88482C4.43509 8.03382 4.0232 7.07625 3.80539 6.06603C3.58184 5.07384 3.53478 4.05109 3.80539 3.06326C4.09643 1.99 4.65313 1.07576 5.67984 0.532581C6.64896 0.0199595 7.6478 -0.138442 8.72776 0.144062C9.75137 0.411598 10.5378 0.970368 11.105 1.85779C11.1979 1.99011 11.2734 2.13389 11.3298 2.2856C11.3583 2.37602 11.349 2.53941 11.2896 2.58993C10.513 3.24349 9.98421 4.06231 9.62071 5.00524C9.237 5.97512 9.07448 7.01941 9.14513 8.06101C9.21788 9.0545 9.44784 10.0299 9.8263 10.9503C10.2338 11.9481 10.7744 12.8474 11.4023 13.7067C11.4235 13.7325 11.4489 13.7546 11.4772 13.7722Z" fill="black"/>
</g>
</svg>
