<svg width="24" height="24" viewBox="0 0 24 24" fill="none" xmlns="http://www.w3.org/2000/svg">
<g opacity="0.8" clip-path="url(#clip0_12_1333)">
<path d="M18.8255 2.56566C18.7213 2.98997 18.6348 3.52061 18.4723 4.0252C18.342 4.4297 18.4191 4.69658 18.7547 4.95721C19.0199 5.18074 19.2593 5.4332 19.4684 5.70991C19.5144 5.77606 19.5807 5.82539 19.6572 5.85042C19.7338 5.87544 19.8164 5.87479 19.8925 5.84857C20.4239 5.73077 20.9553 5.60149 21.493 5.52226C21.8171 5.4635 22.1515 5.52004 22.4383 5.68208C22.7251 5.84411 22.9462 6.10144 23.0633 6.40945C23.3606 7.11142 23.6412 7.81964 23.9052 8.53412C24.024 8.84931 24.0302 9.19591 23.9227 9.51513C23.8152 9.83436 23.6006 10.1066 23.3154 10.2856C22.8528 10.59 22.3724 10.8673 21.9087 11.1707C21.8675 11.2015 21.833 11.2404 21.8074 11.2851C21.7818 11.3297 21.7656 11.3791 21.7597 11.4303C21.7358 11.9234 21.7399 12.4175 21.717 12.9106C21.7085 12.9777 21.7212 13.0458 21.7533 13.1053C21.7855 13.1647 21.8355 13.2126 21.8962 13.2422C22.313 13.5007 22.7298 13.7697 23.1466 14.0418C23.7999 14.4734 24.049 15.1417 23.7718 15.8725C23.4946 16.6033 23.1779 17.332 22.8434 18.043C22.5589 18.6477 21.8629 18.9406 21.1689 18.7884C20.6709 18.6842 20.1728 18.5611 19.6799 18.4287C19.6043 18.4012 19.5219 18.398 19.4443 18.4197C19.3668 18.4414 19.2979 18.4869 19.2475 18.5497C18.9422 18.8624 18.6223 19.1752 18.2962 19.4702C18.2421 19.5106 18.202 19.5669 18.1816 19.6312C18.1613 19.6956 18.1616 19.7647 18.1826 19.8288C18.2868 20.274 18.3827 20.7233 18.4775 21.1716C18.6859 22.1599 18.34 22.7969 17.4022 23.1608C16.8301 23.3828 16.2622 23.6163 15.6912 23.8457C14.8503 24.1824 14.1418 23.95 13.6614 23.1743C13.4114 22.7688 13.1623 22.3632 12.9227 21.9514C12.8934 21.8904 12.8459 21.8401 12.7867 21.8074C12.7275 21.7747 12.6596 21.7613 12.5924 21.769C12.1162 21.7763 11.64 21.769 11.1638 21.7471C11.0968 21.7364 11.0281 21.7469 10.9674 21.7772C10.9067 21.8075 10.8569 21.856 10.8252 21.916C10.572 22.333 10.3042 22.7323 10.0395 23.1399C9.58312 23.8509 8.88812 24.1043 8.11185 23.8009C7.43456 23.5371 6.76664 23.2494 6.10811 22.9429C5.37872 22.603 5.07342 21.9108 5.26515 21.131C5.38185 20.6524 5.49021 20.1708 5.61837 19.6944C5.64095 19.6307 5.64305 19.5616 5.62436 19.4967C5.60568 19.4319 5.56714 19.3745 5.51418 19.3326C5.17866 19.0084 4.84626 18.6789 4.53784 18.3287C4.49219 18.2675 4.42857 18.2222 4.35589 18.199C4.28321 18.1758 4.20511 18.1759 4.13251 18.1994C3.69349 18.2988 3.25412 18.395 2.8144 18.4882C1.82139 18.6967 1.19099 18.3568 0.821085 17.4164C0.602269 16.8608 0.377198 16.3082 0.154214 15.7484C-0.177137 14.9259 0.0614779 14.1763 0.812748 13.7019C1.23788 13.434 1.67447 13.1807 2.09647 12.9138C2.13552 12.8868 2.16855 12.8521 2.19348 12.8117C2.21841 12.7713 2.2347 12.7262 2.24131 12.6792C2.26006 12.2028 2.24131 11.7263 2.27049 11.2509C2.2825 11.1589 2.26546 11.0654 2.22174 10.9835C2.17802 10.9016 2.10981 10.8355 2.02666 10.7943C1.56506 10.5045 1.0993 10.2199 0.658536 9.89983C0.407387 9.71857 0.222436 9.46005 0.131935 9.16375C0.0414347 8.86744 0.050359 8.54965 0.157343 8.25889C0.448056 7.5187 0.760651 6.78476 1.09513 6.06959C1.23925 5.76462 1.48499 5.51935 1.79016 5.37592C2.09533 5.23248 2.44089 5.19981 2.76751 5.28352C3.27391 5.39925 3.77928 5.51809 4.28151 5.64841C4.35476 5.67039 4.43298 5.66939 4.50564 5.64553C4.5783 5.62167 4.6419 5.5761 4.68788 5.51496C4.99139 5.18372 5.31391 4.87044 5.6538 4.57669C5.85595 4.40988 5.87992 4.25768 5.82469 4.0252C5.70903 3.53729 5.59962 3.04626 5.52251 2.55002C5.41831 1.85674 5.72153 1.25624 6.3561 0.974762C7.09174 0.650536 7.84197 0.355498 8.59845 0.085484C8.90543 -0.0181411 9.23836 -0.0152406 9.54349 0.0937115C9.84863 0.202664 10.1082 0.411311 10.2802 0.68598C10.5709 1.13739 10.8502 1.59507 11.1242 2.0569C11.1566 2.12556 11.2095 2.18249 11.2755 2.21983C11.3416 2.25717 11.4176 2.2731 11.4931 2.26541C11.9682 2.25498 12.4444 2.28313 12.9206 2.27479C12.9753 2.27098 13.0287 2.25586 13.0773 2.23038C13.1259 2.2049 13.1687 2.16961 13.203 2.12675C13.4791 1.71808 13.7365 1.29273 13.998 0.875721C14.4273 0.187653 15.1525 -0.0688084 15.9059 0.230397C16.5727 0.496241 17.2323 0.781897 17.8856 1.07485C18.4879 1.33861 18.789 1.81087 18.8255 2.56566ZM13.0623 20.4658V20.3908C13.3843 20.3678 13.6 20.5242 13.7615 20.7921C14.1001 21.3561 14.4513 21.9129 14.7868 22.479C14.891 22.6551 15.0056 22.7 15.1921 22.6218C15.7673 22.383 16.3383 22.1443 16.9249 21.9222C17.1438 21.8388 17.2157 21.7273 17.1604 21.4917C17.0156 20.886 16.9041 20.2719 16.7541 19.6673C16.6499 19.2607 16.7832 18.9854 17.0948 18.7154C17.5913 18.2855 18.062 17.8267 18.5046 17.3414C18.789 17.0286 19.0777 16.9025 19.4882 17.0109C20.0988 17.1725 20.7167 17.3059 21.3263 17.4686C21.5409 17.5259 21.6462 17.4686 21.7264 17.2684C21.9598 16.7002 22.1995 16.1341 22.4495 15.5722C22.5537 15.3491 22.5131 15.2115 22.2964 15.0801C21.7566 14.7528 21.2294 14.4035 20.6969 14.0637C20.5731 13.9915 20.4721 13.886 20.4054 13.7592C20.3388 13.6324 20.309 13.4893 20.3197 13.3464C20.3416 12.577 20.3656 11.8076 20.3614 11.0393C20.3614 10.689 20.4802 10.4472 20.7782 10.2699C21.345 9.93423 21.9014 9.58394 22.4631 9.24095C22.6006 9.15651 22.6881 9.07102 22.611 8.88441C22.3589 8.27766 22.1171 7.66569 21.8817 7.05269C21.8129 6.87546 21.7097 6.82125 21.5211 6.86504C20.8876 7.0089 20.2499 7.12879 19.6185 7.28205C19.2725 7.36441 19.0266 7.26328 18.7901 7.00682C18.2816 6.45428 17.7575 5.91529 17.2271 5.38569C16.9968 5.15738 16.8906 4.91551 16.9697 4.59337C17.1313 3.94701 17.2823 3.29647 17.4438 2.65115C17.4949 2.44264 17.4438 2.33005 17.2417 2.24769C16.6644 2.01104 16.0955 1.76604 15.5256 1.50645C15.3172 1.41366 15.213 1.46475 15.1036 1.64511C14.7659 2.19973 14.4117 2.74497 14.0689 3.29751C13.9954 3.4256 13.8865 3.52968 13.7552 3.5972C13.6239 3.66472 13.4759 3.69279 13.3291 3.67803C12.5601 3.65301 11.7911 3.63633 11.0221 3.63842C10.875 3.6492 10.7279 3.61726 10.5985 3.54642C10.4691 3.47559 10.363 3.36888 10.2927 3.23913C9.9624 2.68971 9.61438 2.15073 9.29449 1.59611C9.15695 1.35633 9.00899 1.32297 8.76621 1.42618C8.20145 1.667 7.62836 1.88906 7.05735 2.11424C7.01943 2.1234 6.98389 2.14053 6.95308 2.16448C6.92228 2.18843 6.89692 2.21867 6.87869 2.25317C6.86046 2.28768 6.84978 2.32567 6.84735 2.36463C6.84491 2.40359 6.85079 2.44262 6.86459 2.47913C7.00838 3.12132 7.13759 3.76665 7.28138 4.4078C7.3564 4.73203 7.28138 4.99579 7.01672 5.19074C6.38078 5.65779 5.81086 6.20872 5.32245 6.82855C5.23431 6.9487 5.11046 7.03789 4.96861 7.08339C4.82676 7.12889 4.67416 7.12836 4.53263 7.08188C3.90744 6.92446 3.28225 6.78685 2.66644 6.62317C2.43304 6.56166 2.30175 6.59711 2.20484 6.83793C1.97977 7.39985 1.73803 7.95552 1.48483 8.50597C1.38063 8.72699 1.43273 8.85209 1.63071 8.97511C2.16733 9.30872 2.69144 9.66213 3.22911 9.99574C3.55421 10.1969 3.65424 10.467 3.63444 10.8485C3.59693 11.5637 3.59589 12.283 3.61464 12.9993C3.62402 13.3704 3.51044 13.6321 3.19055 13.8197C2.66123 14.1325 2.13815 14.4557 1.61299 14.7747C1.29414 14.9686 1.28268 15.004 1.42543 15.3585C1.64112 15.8964 1.87036 16.4302 2.07251 16.9734C2.15482 17.1944 2.2809 17.2403 2.4893 17.1923C3.11449 17.0495 3.73968 16.9275 4.36487 16.7753C4.72019 16.6898 4.97443 16.7941 5.21721 17.0578C5.71528 17.5968 6.22273 18.1274 6.75414 18.6341C7.02401 18.8916 7.12508 19.1554 7.03339 19.514C6.87292 20.1395 6.73122 20.7765 6.57283 21.4062C6.52594 21.5907 6.57284 21.6991 6.74997 21.7742C7.32515 22.0129 7.89615 22.2548 8.4682 22.5102C8.6964 22.6145 8.8256 22.5655 8.95585 22.3518C9.29345 21.7971 9.65398 21.2561 10.0062 20.7098C10.0738 20.5927 10.1732 20.4972 10.2929 20.4345C10.4127 20.3717 10.5477 20.3443 10.6824 20.3553C11.4754 20.3929 12.2694 20.4283 13.0623 20.4658Z" fill="white"/>
<path d="M11.8798 16.9911C11.2222 16.9869 10.5719 16.8523 9.96659 16.595C9.3613 16.3377 8.81302 15.9628 8.3535 15.4921C7.89397 15.0214 7.53232 14.4641 7.28947 13.8526C7.04663 13.2411 6.92741 12.5875 6.93872 11.9296C6.96165 9.22948 9.22587 7.0089 11.9402 7.02975C12.5971 7.03764 13.2459 7.1749 13.8497 7.4337C14.4535 7.6925 15.0004 8.06777 15.4593 8.53807C15.9181 9.00837 16.2798 9.5645 16.5238 10.1747C16.7678 10.7849 16.8893 11.4372 16.8813 12.0943C16.8636 14.7914 14.5942 17.0161 11.8798 16.9911ZM15.5434 12.0245C15.5382 10.0082 13.9085 8.36522 11.9204 8.37565C9.93234 8.38607 8.27871 10.0208 8.2735 11.988C8.27103 12.4678 8.36335 12.9434 8.54514 13.3875C8.72693 13.8315 8.99461 14.2352 9.33281 14.5755C9.67102 14.9157 10.0731 15.1857 10.5159 15.37C10.9587 15.5543 11.4336 15.6492 11.9132 15.6494C13.9117 15.6337 15.5486 14.0001 15.5434 12.0245Z" fill="white"/>
</g>
<defs>
<clipPath id="clip0_12_1333">
<rect width="24" height="24" fill="white"/>
</clipPath>
</defs>
</svg>
