<svg width="25" height="25" viewBox="0 0 25 25" fill="none" xmlns="http://www.w3.org/2000/svg">
<g clip-path="url(#clip0_172_3229)">
<path d="M0.0641163 12.5327C0.0641163 10.7819 0.0641163 9.03123 0.0641163 7.27899C0.0641163 5.90528 0.234911 4.5682 0.915038 3.34407C1.94133 1.49719 3.53032 0.454699 5.6012 0.161641C6.367 0.0588952 7.13885 0.00790156 7.9115 0.00900618C11.119 -0.00625727 14.3259 -0.00625727 17.5324 0.00900618C18.6227 0.00900618 19.7176 0.0792181 20.7516 0.46691C23.2494 1.41172 24.6646 3.26317 24.8689 5.89459C25.0367 8.12916 24.9787 10.382 24.9955 12.6273C25.0092 14.3902 24.9955 16.1547 24.9757 17.9191C24.9543 19.4363 24.6966 20.8925 23.806 22.1776C22.7386 23.7192 21.267 24.6427 19.4264 24.8152C17.7489 24.9678 16.0623 24.9586 14.3788 24.977C12.1361 25.0014 9.89291 25.0014 7.64921 24.977C6.24015 24.9632 4.83568 24.8716 3.5471 24.1955C1.50824 23.127 0.355381 21.4068 0.192211 19.1478C0.0244671 16.9499 0.0625904 14.7352 0.0107422 12.5296L0.0641163 12.5327ZM23.2952 17.1117C23.2952 15.5457 23.3059 14.1002 23.2952 12.6532C23.2769 10.4828 23.2876 8.3108 23.2022 6.14339C23.1767 5.16884 22.8283 4.2304 22.212 3.47558C21.5956 2.72076 20.7461 2.19235 19.7969 1.97341C18.9796 1.79852 18.1455 1.71407 17.3098 1.72157C14.2294 1.69104 11.1474 1.69714 8.06704 1.70783C7.33176 1.70443 6.59709 1.75083 5.86807 1.84673C4.11438 2.09399 2.84562 3.01743 2.17464 4.68725C1.81323 5.5878 1.76748 6.54329 1.76291 7.49573C1.75223 10.7331 1.75528 13.9705 1.75376 17.2079V18.5205L1.87728 18.5449C1.96725 18.461 2.05875 18.3801 2.1472 18.2946C3.27769 17.1834 4.40818 16.0723 5.53868 14.9611C6.04039 14.4681 6.41247 14.4589 6.96603 14.9046C7.84288 15.6098 8.72277 16.3134 9.62249 17.0415C9.73229 16.9179 9.82531 16.8171 9.91223 16.7118L14.7692 10.9117C15.2404 10.3485 15.6948 10.3118 16.2316 10.7926L22.2918 16.2264C22.5952 16.4905 22.9063 16.7637 23.2952 17.1086V17.1117ZM6.3347 16.5897C6.22033 16.692 6.12273 16.7713 6.02971 16.8583L2.86087 19.9843C2.20209 20.636 2.19752 20.6391 2.75107 21.3794C3.72704 22.6844 5.09797 23.2003 6.65952 23.2369C8.79445 23.2873 10.9446 23.298 13.0856 23.2858C15.0879 23.2751 17.0932 23.2781 19.0894 23.1545C21.0855 23.0309 22.5968 21.6175 23.0756 19.6744C23.1176 19.5577 23.1204 19.4304 23.0836 19.3119C23.0467 19.1934 22.9721 19.0903 22.8712 19.0181C21.2792 17.6047 19.6978 16.1761 18.1119 14.7535C17.293 14.0178 16.471 13.2867 15.6369 12.5418C15.5515 12.6334 15.4844 12.7051 15.4173 12.7815C13.8293 14.6772 12.2434 16.5739 10.6595 18.4717C10.0144 19.2455 9.66214 19.2761 8.88594 18.6441C8.04722 17.9558 7.1963 17.2796 6.3347 16.5866V16.5897Z" fill="white"/>
<path d="M7.69798 9.07876C7.51254 9.07786 7.32909 9.04041 7.15811 8.96854C6.98714 8.89668 6.83197 8.79182 6.70148 8.65993C6.43795 8.39358 6.29092 8.03335 6.29274 7.6585C6.29456 7.28364 6.44508 6.92486 6.71119 6.66109C6.97729 6.39731 7.33719 6.25015 7.7117 6.25197C8.08622 6.25379 8.44467 6.40445 8.7082 6.6708C8.97174 6.93715 9.11876 7.29738 9.11694 7.67223C9.11512 8.04709 8.9646 8.40587 8.6985 8.66964C8.43239 8.93342 8.07249 9.08059 7.69798 9.07876Z" fill="white"/>
</g>
<defs>
<clipPath id="clip0_172_3229">
<rect width="25" height="25" fill="white"/>
</clipPath>
</defs>
</svg>
